<?xml version="1.0" standalone="yes"?><svg xmlns="http://www.w3.org/2000/svg" version="1.1" width="343" height="343" viewBox="0 0 343 343" shape-rendering="crispEdges"><rect x="0" y="0" width="343" height="343" fill="#fff"/><path fill="#000" d="M28 28h7v7H28V28M35 28h7v7H35V28M42 28h7v7H42V28M49 28h7v7H49V28M56 28h7v7H56V28M63 28h7v7H63V28M70 28h7v7H70V28M105 28h7v7H105V28M126 28h7v7H126V28M147 28h7v7H147V28M168 28h7v7H168V28M175 28h7v7H175V28M189 28h7v7H189V28M203 28h7v7H203V28M210 28h7v7H210V28M238 28h7v7H238V28M245 28h7v7H245V28M252 28h7v7H252V28M266 28h7v7H266V28M273 28h7v7H273V28M280 28h7v7H280V28M287 28h7v7H287V28M294 28h7v7H294V28M301 28h7v7H301V28M308 28h7v7H308V28M28 35h7v7H28V35M70 35h7v7H70V35M105 35h7v7H105V35M112 35h7v7H112V35M119 35h7v7H119V35M126 35h7v7H126V35M140 35h7v7H140V35M147 35h7v7H147V35M168 35h7v7H168V35M175 35h7v7H175V35M203 35h7v7H203V35M210 35h7v7H210V35M217 35h7v7H217V35M231 35h7v7H231V35M238 35h7v7H238V35M266 35h7v7H266V35M308 35h7v7H308V35M28 42h7v7H28V42M42 42h7v7H42V42M49 42h7v7H49V42M56 42h7v7H56V42M70 42h7v7H70V42M84 42h7v7H84V42M91 42h7v7H91V42M105 42h7v7H105V42M133 42h7v7H133V42M147 42h7v7H147V42M154 42h7v7H154V42M175 42h7v7H175V42M182 42h7v7H182V42M189 42h7v7H189V42M203 42h7v7H203V42M217 42h7v7H217V42M238 42h7v7H238V42M266 42h7v7H266V42M280 42h7v7H280V42M287 42h7v7H287V42M294 42h7v7H294V42M308 42h7v7H308V42M28 49h7v7H28V49M42 49h7v7H42V49M49 49h7v7H49V49M56 49h7v7H56V49M70 49h7v7H70V49M84 49h7v7H84V49M91 49h7v7H91V49M98 49h7v7H98V49M112 49h7v7H112V49M161 49h7v7H161V49M168 49h7v7H168V49M175 49h7v7H175V49M196 49h7v7H196V49M210 49h7v7H210V49M224 49h7v7H224V49M238 49h7v7H238V49M245 49h7v7H245V49M266 49h7v7H266V49M280 49h7v7H280V49M287 49h7v7H287V49M294 49h7v7H294V49M308 49h7v7H308V49M28 56h7v7H28V56M42 56h7v7H42V56M49 56h7v7H49V56M56 56h7v7H56V56M70 56h7v7H70V56M84 56h7v7H84V56M119 56h7v7H119V56M133 56h7v7H133V56M140 56h7v7H140V56M154 56h7v7H154V56M161 56h7v7H161V56M175 56h7v7H175V56M182 56h7v7H182V56M189 56h7v7H189V56M203 56h7v7H203V56M224 56h7v7H224V56M238 56h7v7H238V56M245 56h7v7H245V56M252 56h7v7H252V56M266 56h7v7H266V56M280 56h7v7H280V56M287 56h7v7H287V56M294 56h7v7H294V56M308 56h7v7H308V56M28 63h7v7H28V63M70 63h7v7H70V63M84 63h7v7H84V63M91 63h7v7H91V63M98 63h7v7H98V63M119 63h7v7H119V63M133 63h7v7H133V63M154 63h7v7H154V63M168 63h7v7H168V63M217 63h7v7H217V63M224 63h7v7H224V63M231 63h7v7H231V63M238 63h7v7H238V63M266 63h7v7H266V63M308 63h7v7H308V63M28 70h7v7H28V70M35 70h7v7H35V70M42 70h7v7H42V70M49 70h7v7H49V70M56 70h7v7H56V70M63 70h7v7H63V70M70 70h7v7H70V70M84 70h7v7H84V70M98 70h7v7H98V70M112 70h7v7H112V70M126 70h7v7H126V70M140 70h7v7H140V70M154 70h7v7H154V70M168 70h7v7H168V70M182 70h7v7H182V70M196 70h7v7H196V70M210 70h7v7H210V70M224 70h7v7H224V70M238 70h7v7H238V70M252 70h7v7H252V70M266 70h7v7H266V70M273 70h7v7H273V70M280 70h7v7H280V70M287 70h7v7H287V70M294 70h7v7H294V70M301 70h7v7H301V70M308 70h7v7H308V70M84 77h7v7H84V77M98 77h7v7H98V77M105 77h7v7H105V77M112 77h7v7H112V77M119 77h7v7H119V77M133 77h7v7H133V77M140 77h7v7H140V77M168 77h7v7H168V77M175 77h7v7H175V77M189 77h7v7H189V77M196 77h7v7H196V77M224 77h7v7H224V77M245 77h7v7H245V77M28 84h7v7H28V84M42 84h7v7H42V84M49 84h7v7H49V84M56 84h7v7H56V84M63 84h7v7H63V84M70 84h7v7H70V84M91 84h7v7H91V84M98 84h7v7H98V84M105 84h7v7H105V84M119 84h7v7H119V84M126 84h7v7H126V84M133 84h7v7H133V84M140 84h7v7H140V84M147 84h7v7H147V84M161 84h7v7H161V84M182 84h7v7H182V84M203 84h7v7H203V84M210 84h7v7H210V84M231 84h7v7H231V84M252 84h7v7H252V84M266 84h7v7H266V84M273 84h7v7H273V84M280 84h7v7H280V84M287 84h7v7H287V84M294 84h7v7H294V84M49 91h7v7H49V91M56 91h7v7H56V91M77 91h7v7H77V91M84 91h7v7H84V91M91 91h7v7H91V91M98 91h7v7H98V91M105 91h7v7H105V91M112 91h7v7H112V91M126 91h7v7H126V91M154 91h7v7H154V91M161 91h7v7H161V91M168 91h7v7H168V91M189 91h7v7H189V91M224 91h7v7H224V91M231 91h7v7H231V91M238 91h7v7H238V91M245 91h7v7H245V91M252 91h7v7H252V91M259 91h7v7H259V91M273 91h7v7H273V91M280 91h7v7H280V91M294 91h7v7H294V91M308 91h7v7H308V91M49 98h7v7H49V98M70 98h7v7H70V98M91 98h7v7H91V98M126 98h7v7H126V98M140 98h7v7H140V98M175 98h7v7H175V98M196 98h7v7H196V98M203 98h7v7H203V98M217 98h7v7H217V98M224 98h7v7H224V98M231 98h7v7H231V98M252 98h7v7H252V98M273 98h7v7H273V98M301 98h7v7H301V98M35 105h7v7H35V105M49 105h7v7H49V105M84 105h7v7H84V105M119 105h7v7H119V105M133 105h7v7H133V105M140 105h7v7H140V105M154 105h7v7H154V105M168 105h7v7H168V105M175 105h7v7H175V105M189 105h7v7H189V105M210 105h7v7H210V105M245 105h7v7H245V105M252 105h7v7H252V105M266 105h7v7H266V105M280 105h7v7H280V105M287 105h7v7H287V105M301 105h7v7H301V105M308 105h7v7H308V105M42 112h7v7H42V112M63 112h7v7H63V112M70 112h7v7H70V112M84 112h7v7H84V112M105 112h7v7H105V112M126 112h7v7H126V112M147 112h7v7H147V112M154 112h7v7H154V112M168 112h7v7H168V112M182 112h7v7H182V112M189 112h7v7H189V112M196 112h7v7H196V112M203 112h7v7H203V112M210 112h7v7H210V112M217 112h7v7H217V112M224 112h7v7H224V112M231 112h7v7H231V112M245 112h7v7H245V112M252 112h7v7H252V112M287 112h7v7H287V112M294 112h7v7H294V112M301 112h7v7H301V112M28 119h7v7H28V119M49 119h7v7H49V119M63 119h7v7H63V119M77 119h7v7H77V119M84 119h7v7H84V119M91 119h7v7H91V119M112 119h7v7H112V119M119 119h7v7H119V119M126 119h7v7H126V119M175 119h7v7H175V119M203 119h7v7H203V119M217 119h7v7H217V119M231 119h7v7H231V119M238 119h7v7H238V119M245 119h7v7H245V119M259 119h7v7H259V119M273 119h7v7H273V119M280 119h7v7H280V119M294 119h7v7H294V119M308 119h7v7H308V119M35 126h7v7H35V126M42 126h7v7H42V126M49 126h7v7H49V126M70 126h7v7H70V126M84 126h7v7H84V126M105 126h7v7H105V126M112 126h7v7H112V126M119 126h7v7H119V126M126 126h7v7H126V126M168 126h7v7H168V126M175 126h7v7H175V126M182 126h7v7H182V126M189 126h7v7H189V126M196 126h7v7H196V126M217 126h7v7H217V126M224 126h7v7H224V126M231 126h7v7H231V126M252 126h7v7H252V126M259 126h7v7H259V126M280 126h7v7H280V126M287 126h7v7H287V126M301 126h7v7H301V126M42 133h7v7H42V133M63 133h7v7H63V133M105 133h7v7H105V133M112 133h7v7H112V133M119 133h7v7H119V133M154 133h7v7H154V133M175 133h7v7H175V133M182 133h7v7H182V133M189 133h7v7H189V133M217 133h7v7H217V133M238 133h7v7H238V133M252 133h7v7H252V133M266 133h7v7H266V133M273 133h7v7H273V133M280 133h7v7H280V133M287 133h7v7H287V133M28 140h7v7H28V140M42 140h7v7H42V140M49 140h7v7H49V140M56 140h7v7H56V140M63 140h7v7H63V140M70 140h7v7H70V140M98 140h7v7H98V140M105 140h7v7H105V140M119 140h7v7H119V140M126 140h7v7H126V140M140 140h7v7H140V140M147 140h7v7H147V140M182 140h7v7H182V140M189 140h7v7H189V140M196 140h7v7H196V140M203 140h7v7H203V140M210 140h7v7H210V140M217 140h7v7H217V140M224 140h7v7H224V140M231 140h7v7H231V140M238 140h7v7H238V140M245 140h7v7H245V140M259 140h7v7H259V140M273 140h7v7H273V140M294 140h7v7H294V140M28 147h7v7H28V147M35 147h7v7H35V147M42 147h7v7H42V147M49 147h7v7H49V147M56 147h7v7H56V147M77 147h7v7H77V147M84 147h7v7H84V147M91 147h7v7H91V147M105 147h7v7H105V147M126 147h7v7H126V147M161 147h7v7H161V147M168 147h7v7H168V147M189 147h7v7H189V147M224 147h7v7H224V147M231 147h7v7H231V147M252 147h7v7H252V147M266 147h7v7H266V147M273 147h7v7H273V147M280 147h7v7H280V147M294 147h7v7H294V147M301 147h7v7H301V147M308 147h7v7H308V147M28 154h7v7H28V154M42 154h7v7H42V154M49 154h7v7H49V154M56 154h7v7H56V154M63 154h7v7H63V154M70 154h7v7H70V154M91 154h7v7H91V154M112 154h7v7H112V154M126 154h7v7H126V154M140 154h7v7H140V154M154 154h7v7H154V154M168 154h7v7H168V154M182 154h7v7H182V154M196 154h7v7H196V154M217 154h7v7H217V154M224 154h7v7H224V154M231 154h7v7H231V154M259 154h7v7H259V154M280 154h7v7H280V154M287 154h7v7H287V154M28 161h7v7H28V161M35 161h7v7H35V161M42 161h7v7H42V161M56 161h7v7H56V161M98 161h7v7H98V161M105 161h7v7H105V161M112 161h7v7H112V161M126 161h7v7H126V161M168 161h7v7H168V161M210 161h7v7H210V161M224 161h7v7H224V161M231 161h7v7H231V161M238 161h7v7H238V161M245 161h7v7H245V161M280 161h7v7H280V161M287 161h7v7H287V161M301 161h7v7H301V161M308 161h7v7H308V161M42 168h7v7H42V168M63 168h7v7H63V168M70 168h7v7H70V168M91 168h7v7H91V168M119 168h7v7H119V168M133 168h7v7H133V168M140 168h7v7H140V168M154 168h7v7H154V168M161 168h7v7H161V168M175 168h7v7H175V168M182 168h7v7H182V168M189 168h7v7H189V168M217 168h7v7H217V168M245 168h7v7H245V168M294 168h7v7H294V168M308 168h7v7H308V168M49 175h7v7H49V175M91 175h7v7H91V175M105 175h7v7H105V175M119 175h7v7H119V175M126 175h7v7H126V175M133 175h7v7H133V175M147 175h7v7H147V175M161 175h7v7H161V175M168 175h7v7H168V175M175 175h7v7H175V175M189 175h7v7H189V175M203 175h7v7H203V175M210 175h7v7H210V175M231 175h7v7H231V175M238 175h7v7H238V175M245 175h7v7H245V175M252 175h7v7H252V175M266 175h7v7H266V175M273 175h7v7H273V175M280 175h7v7H280V175M287 175h7v7H287V175M294 175h7v7H294V175M301 175h7v7H301V175M308 175h7v7H308V175M28 182h7v7H28V182M35 182h7v7H35V182M49 182h7v7H49V182M56 182h7v7H56V182M63 182h7v7H63V182M70 182h7v7H70V182M91 182h7v7H91V182M112 182h7v7H112V182M126 182h7v7H126V182M140 182h7v7H140V182M147 182h7v7H147V182M168 182h7v7H168V182M175 182h7v7H175V182M196 182h7v7H196V182M203 182h7v7H203V182M210 182h7v7H210V182M217 182h7v7H217V182M231 182h7v7H231V182M287 182h7v7H287V182M294 182h7v7H294V182M56 189h7v7H56V189M84 189h7v7H84V189M91 189h7v7H91V189M112 189h7v7H112V189M140 189h7v7H140V189M154 189h7v7H154V189M161 189h7v7H161V189M168 189h7v7H168V189M175 189h7v7H175V189M182 189h7v7H182V189M196 189h7v7H196V189M210 189h7v7H210V189M217 189h7v7H217V189M224 189h7v7H224V189M238 189h7v7H238V189M259 189h7v7H259V189M280 189h7v7H280V189M287 189h7v7H287V189M28 196h7v7H28V196M49 196h7v7H49V196M70 196h7v7H70V196M77 196h7v7H77V196M84 196h7v7H84V196M91 196h7v7H91V196M105 196h7v7H105V196M112 196h7v7H112V196M119 196h7v7H119V196M133 196h7v7H133V196M147 196h7v7H147V196M161 196h7v7H161V196M168 196h7v7H168V196M182 196h7v7H182V196M196 196h7v7H196V196M203 196h7v7H203V196M210 196h7v7H210V196M217 196h7v7H217V196M224 196h7v7H224V196M231 196h7v7H231V196M245 196h7v7H245V196M294 196h7v7H294V196M301 196h7v7H301V196M308 196h7v7H308V196M35 203h7v7H35V203M42 203h7v7H42V203M56 203h7v7H56V203M84 203h7v7H84V203M91 203h7v7H91V203M98 203h7v7H98V203M112 203h7v7H112V203M119 203h7v7H119V203M140 203h7v7H140V203M154 203h7v7H154V203M161 203h7v7H161V203M168 203h7v7H168V203M189 203h7v7H189V203M196 203h7v7H196V203M203 203h7v7H203V203M210 203h7v7H210V203M224 203h7v7H224V203M238 203h7v7H238V203M245 203h7v7H245V203M266 203h7v7H266V203M273 203h7v7H273V203M280 203h7v7H280V203M287 203h7v7H287V203M308 203h7v7H308V203M35 210h7v7H35V210M42 210h7v7H42V210M49 210h7v7H49V210M63 210h7v7H63V210M70 210h7v7H70V210M84 210h7v7H84V210M91 210h7v7H91V210M98 210h7v7H98V210M105 210h7v7H105V210M119 210h7v7H119V210M182 210h7v7H182V210M203 210h7v7H203V210M210 210h7v7H210V210M217 210h7v7H217V210M238 210h7v7H238V210M252 210h7v7H252V210M259 210h7v7H259V210M266 210h7v7H266V210M280 210h7v7H280V210M35 217h7v7H35V217M42 217h7v7H42V217M56 217h7v7H56V217M77 217h7v7H77V217M84 217h7v7H84V217M91 217h7v7H91V217M126 217h7v7H126V217M154 217h7v7H154V217M161 217h7v7H161V217M168 217h7v7H168V217M175 217h7v7H175V217M182 217h7v7H182V217M189 217h7v7H189V217M196 217h7v7H196V217M217 217h7v7H217V217M245 217h7v7H245V217M252 217h7v7H252V217M280 217h7v7H280V217M287 217h7v7H287V217M301 217h7v7H301V217M56 224h7v7H56V224M70 224h7v7H70V224M84 224h7v7H84V224M91 224h7v7H91V224M105 224h7v7H105V224M126 224h7v7H126V224M133 224h7v7H133V224M147 224h7v7H147V224M161 224h7v7H161V224M182 224h7v7H182V224M203 224h7v7H203V224M210 224h7v7H210V224M217 224h7v7H217V224M231 224h7v7H231V224M245 224h7v7H245V224M252 224h7v7H252V224M287 224h7v7H287V224M294 224h7v7H294V224M301 224h7v7H301V224M308 224h7v7H308V224M28 231h7v7H28V231M42 231h7v7H42V231M49 231h7v7H49V231M77 231h7v7H77V231M84 231h7v7H84V231M105 231h7v7H105V231M126 231h7v7H126V231M140 231h7v7H140V231M168 231h7v7H168V231M175 231h7v7H175V231M182 231h7v7H182V231M196 231h7v7H196V231M217 231h7v7H217V231M224 231h7v7H224V231M245 231h7v7H245V231M259 231h7v7H259V231M266 231h7v7H266V231M273 231h7v7H273V231M280 231h7v7H280V231M287 231h7v7H287V231M294 231h7v7H294V231M301 231h7v7H301V231M308 231h7v7H308V231M28 238h7v7H28V238M42 238h7v7H42V238M70 238h7v7H70V238M77 238h7v7H77V238M98 238h7v7H98V238M105 238h7v7H105V238M126 238h7v7H126V238M133 238h7v7H133V238M140 238h7v7H140V238M147 238h7v7H147V238M161 238h7v7H161V238M210 238h7v7H210V238M259 238h7v7H259V238M266 238h7v7H266V238M273 238h7v7H273V238M287 238h7v7H287V238M294 238h7v7H294V238M28 245h7v7H28V245M42 245h7v7H42V245M49 245h7v7H49V245M56 245h7v7H56V245M63 245h7v7H63V245M77 245h7v7H77V245M91 245h7v7H91V245M98 245h7v7H98V245M105 245h7v7H105V245M161 245h7v7H161V245M168 245h7v7H168V245M175 245h7v7H175V245M182 245h7v7H182V245M196 245h7v7H196V245M224 245h7v7H224V245M238 245h7v7H238V245M252 245h7v7H252V245M259 245h7v7H259V245M266 245h7v7H266V245M273 245h7v7H273V245M301 245h7v7H301V245M28 252h7v7H28V252M49 252h7v7H49V252M56 252h7v7H56V252M63 252h7v7H63V252M70 252h7v7H70V252M77 252h7v7H77V252M84 252h7v7H84V252M91 252h7v7H91V252M112 252h7v7H112V252M119 252h7v7H119V252M140 252h7v7H140V252M147 252h7v7H147V252M154 252h7v7H154V252M161 252h7v7H161V252M182 252h7v7H182V252M196 252h7v7H196V252M203 252h7v7H203V252M210 252h7v7H210V252M252 252h7v7H252V252M259 252h7v7H259V252M266 252h7v7H266V252M273 252h7v7H273V252M280 252h7v7H280V252M294 252h7v7H294V252M301 252h7v7H301V252M308 252h7v7H308V252M84 259h7v7H84V259M91 259h7v7H91V259M112 259h7v7H112V259M119 259h7v7H119V259M133 259h7v7H133V259M147 259h7v7H147V259M168 259h7v7H168V259M175 259h7v7H175V259M189 259h7v7H189V259M203 259h7v7H203V259M217 259h7v7H217V259M224 259h7v7H224V259M245 259h7v7H245V259M252 259h7v7H252V259M280 259h7v7H280V259M287 259h7v7H287V259M301 259h7v7H301V259M308 259h7v7H308V259M28 266h7v7H28V266M35 266h7v7H35V266M42 266h7v7H42V266M49 266h7v7H49V266M56 266h7v7H56V266M63 266h7v7H63V266M70 266h7v7H70V266M91 266h7v7H91V266M98 266h7v7H98V266M105 266h7v7H105V266M119 266h7v7H119V266M140 266h7v7H140V266M147 266h7v7H147V266M175 266h7v7H175V266M196 266h7v7H196V266M203 266h7v7H203V266M210 266h7v7H210V266M217 266h7v7H217V266M224 266h7v7H224V266M238 266h7v7H238V266M245 266h7v7H245V266M252 266h7v7H252V266M266 266h7v7H266V266M280 266h7v7H280V266M301 266h7v7H301V266M28 273h7v7H28V273M70 273h7v7H70V273M84 273h7v7H84V273M91 273h7v7H91V273M126 273h7v7H126V273M140 273h7v7H140V273M147 273h7v7H147V273M154 273h7v7H154V273M168 273h7v7H168V273M175 273h7v7H175V273M182 273h7v7H182V273M189 273h7v7H189V273M203 273h7v7H203V273M217 273h7v7H217V273M245 273h7v7H245V273M252 273h7v7H252V273M280 273h7v7H280V273M287 273h7v7H287V273M308 273h7v7H308V273M28 280h7v7H28V280M42 280h7v7H42V280M49 280h7v7H49V280M56 280h7v7H56V280M70 280h7v7H70V280M84 280h7v7H84V280M91 280h7v7H91V280M105 280h7v7H105V280M119 280h7v7H119V280M126 280h7v7H126V280M133 280h7v7H133V280M175 280h7v7H175V280M210 280h7v7H210V280M238 280h7v7H238V280M252 280h7v7H252V280M259 280h7v7H259V280M266 280h7v7H266V280M273 280h7v7H273V280M280 280h7v7H280V280M287 280h7v7H287V280M294 280h7v7H294V280M301 280h7v7H301V280M308 280h7v7H308V280M28 287h7v7H28V287M42 287h7v7H42V287M49 287h7v7H49V287M56 287h7v7H56V287M70 287h7v7H70V287M84 287h7v7H84V287M105 287h7v7H105V287M112 287h7v7H112V287M119 287h7v7H119V287M133 287h7v7H133V287M140 287h7v7H140V287M147 287h7v7H147V287M154 287h7v7H154V287M161 287h7v7H161V287M182 287h7v7H182V287M189 287h7v7H189V287M224 287h7v7H224V287M245 287h7v7H245V287M259 287h7v7H259V287M273 287h7v7H273V287M287 287h7v7H287V287M294 287h7v7H294V287M28 294h7v7H28V294M42 294h7v7H42V294M49 294h7v7H49V294M56 294h7v7H56V294M70 294h7v7H70V294M84 294h7v7H84V294M91 294h7v7H91V294M98 294h7v7H98V294M147 294h7v7H147V294M154 294h7v7H154V294M175 294h7v7H175V294M210 294h7v7H210V294M217 294h7v7H217V294M238 294h7v7H238V294M252 294h7v7H252V294M259 294h7v7H259V294M266 294h7v7H266V294M273 294h7v7H273V294M280 294h7v7H280V294M287 294h7v7H287V294M294 294h7v7H294V294M28 301h7v7H28V301M70 301h7v7H70V301M91 301h7v7H91V301M98 301h7v7H98V301M105 301h7v7H105V301M112 301h7v7H112V301M119 301h7v7H119V301M126 301h7v7H126V301M133 301h7v7H133V301M147 301h7v7H147V301M154 301h7v7H154V301M168 301h7v7H168V301M175 301h7v7H175V301M182 301h7v7H182V301M196 301h7v7H196V301M252 301h7v7H252V301M259 301h7v7H259V301M280 301h7v7H280V301M287 301h7v7H287V301M301 301h7v7H301V301M28 308h7v7H28V308M35 308h7v7H35V308M42 308h7v7H42V308M49 308h7v7H49V308M56 308h7v7H56V308M63 308h7v7H63V308M70 308h7v7H70V308M84 308h7v7H84V308M91 308h7v7H91V308M140 308h7v7H140V308M147 308h7v7H147V308M182 308h7v7H182V308M203 308h7v7H203V308M210 308h7v7H210V308M217 308h7v7H217V308M224 308h7v7H224V308M231 308h7v7H231V308M245 308h7v7H245V308M266 308h7v7H266V308M273 308h7v7H273V308M280 308h7v7H280V308M287 308h7v7H287V308M294 308h7v7H294V308"/></svg>